/* XPM */
static char * current_player_xpm[] = {
"416 26 2 1",
" 	c #000001",
".	c #FFFFFF",
"       ...............        .......           ........    ......................        ......................        ..........................    .......           ........       .......................                                  ......................        .......                              ............              ........       ........    ..........................    ......................    ",
"       ...............        .......           ........    ......................        ......................        ..........................    .......           ........       .......................                                  ......................        .......                              ............              ........       ........    ..........................    ......................    ",
"       ...............        .......           ........    ......................        ......................        ..........................    .......           ........       .......................                                  ......................        .......                              ............              ........       ........    ..........................    ......................    ",
"       ...............        .......           ........    ......................        ......................        ..........................    .......           ........       .......................                                  ......................        .......                              ............              ........       ........    ..........................    ......................    ",
"   ........       ........    .......           ........    .......           ........    .......           ........    .......                       ...........       ........               ........                                         .......           ........    .......                          ........    .......           ........       ........    .......                       .......           ........",
"   ........       ........    .......           ........    .......           ........    .......           ........    .......                       ...........       ........               ........                                         .......           ........    .......                          ........    .......           ........       ........    .......                       .......           ........",
"   ........       ........    .......           ........    .......           ........    .......           ........    .......                       ...........       ........               ........                                         .......           ........    .......                          ........    .......           ........       ........    .......                       .......           ........",
"   ........       ........    .......           ........    .......           ........    .......           ........    .......                       ..............    ........               ........                                         .......           ........    .......                          ........    ........          ........       ........    .......                       .......           ........",
".......                       .......           ........    .......           ........    .......           ........    .......                       ...............   ........               ........                                         .......           ........    .......                       .......           ........       ........       ........    .......                       .......           ........",
".......                       .......           ........    .......           ........    .......           ........    .......                       ...............   ........               ........                                         .......           ........    .......                       .......           ........       ........       ........    .......                       .......           ........",
".......                       .......           ........    .......           ........    .......           ........    .......                       ...............   ........               ........                                         .......           ........    .......                       .......           ........       ........       ........    .......                       .......           ........",
".......                       .......           ........    .......        ...........    .......        ...........    ......................        ..........................               ........                                         .......           ........    .......                       .......           ........           ...............        ......................        .......        ...........",
".......                       .......           ........    .......        ...........    .......        ...........    ......................        ..........................               ........                                         .......           ........    .......                       .......           ........           ...............        ......................        .......        ...........",
".......                       .......           ........    .......        ...........    .......        ...........    ......................        ..........................               ........                                         .......           ........    .......                       .......           ........           ...............        ......................        .......        ...........",
".......                       .......           ........    .......        ...........    .......        ...........    ......................        ..........................               ........                                         .......           ........    .......                       .......           ........           ...............        ......................        .......        ...........",
".......                       .......           ........    ...................           ...................           .......                       .......    ...............               ........                                         ......................        .......                       ..........................               ........           .......                       ...................       ",
".......                       .......           ........    ...................           ...................           .......                       .......    ...............               ........                                         ......................        .......                       ..........................               ........           .......                       ...................       ",
".......                       .......           ........    ...................           ...................           .......                       .......    ...............               ........                                         ......................        .......                       ..........................               ........           .......                       ...................       ",
"   ........       ........    .......           ........    ...................           ...................           .......                       .......    ...............               ........                                         ......................        .......                       ..........................               ........           .......                       ...................       ",
"   ........       ........    .......           ........    .......    ...........        .......    ...........        .......                       .......        ...........               ........                                         .......                       .......                       .......           ........               ........           .......                       .......    ...........    ",
"   ........       ........    .......           ........    .......    ...........        .......    ...........        .......                       .......        ...........               ........                                         .......                       .......                       .......           ........               ........           .......                       .......    ...........    ",
"   ........       ........    .......           ........    .......    ...........        .......    ...........        .......                       .......        ...........               ........                                         .......                       .......                       .......           ........               ........           .......                       .......    ...........    ",
"       ...............           ...................        .......        ...........    .......        ...........    ..........................    .......           ........               ........                                         .......                       ..........................    .......           ........               ........           ..........................    .......        ...........",
"       ...............           ...................        .......        ...........    .......        ...........    ..........................    .......           ........               ........                                         .......                       ..........................    .......           ........               ........           ..........................    .......        ...........",
"       ...............           ...................        .......        ...........    .......        ...........    ..........................    .......           ........               ........                                         .......                       ..........................    .......           ........               ........           ..........................    .......        ...........",
"       ...............           ...................        .......        ...........    .......        ...........    ..........................    .......           ........               ........                                         .......                       ..........................    .......           ........               ........           ..........................    .......        ..........."};
