/* XPM */
static char * green_pawn_xpm[] = {
"65 65 7 1",
" 	c #000001",
".	c #09FF09",
"+	c #01FF01",
"@	c #00FF00",
"#	c #11FF11",
"$	c #07FF07",
"%	c #71FF71",
"                                                                 ",
"                                                                 ",
"                                                                 ",
"                                                                 ",
"                                                                 ",
"                                                                 ",
"                                                                 ",
"                                                                 ",
"                                                                 ",
"                                                                 ",
"                          .+@@@@@@@@@+.                          ",
"                       #@@@@@@@@@@@@@@@@@#                       ",
"                     $@@@@@@@@@@@@@@@@@@@@@$                     ",
"                   %+@@@@@@@@@@@@@@@@@@@@@@@+%                   ",
"                  +@@@@@@@@@@@@@@@@@@@@@@@@@@@+                  ",
"                 +@@@@@@@@@@@@@@@@@@@@@@@@@@@@@+                 ",
"                +@@@@@@@@@@@@@@@@@@@@@@@@@@@@@@@+                ",
"               +@@@@@@@@@@@@@@@@@@@@@@@@@@@@@@@@@+               ",
"              +@@@@@@@@@@@@@@@@@@@@@@@@@@@@@@@@@@@+              ",
"             %@@@@@@@@@@@@@@@@@@@@@@@@@@@@@@@@@@@@@%             ",
"             +@@@@@@@@@@@@@@@@@@@@@@@@@@@@@@@@@@@@@+             ",
"            $@@@@@@@@@@@@@@@@@@@@@@@@@@@@@@@@@@@@@@@$            ",
"            @@@@@@@@@@@@@@@@@@@@@@@@@@@@@@@@@@@@@@@@@            ",
"           #@@@@@@@@@@@@@@@@@@@@@@@@@@@@@@@@@@@@@@@@@#           ",
"           @@@@@@@@@@@@@@@@@@@@@@@@@@@@@@@@@@@@@@@@@@@           ",
"           @@@@@@@@@@@@@@@@@@@@@@@@@@@@@@@@@@@@@@@@@@@           ",
"          .@@@@@@@@@@@@@@@@@@@@@@@@@@@@@@@@@@@@@@@@@@@.          ",
"          +@@@@@@@@@@@@@@@@@@@@@@@@@@@@@@@@@@@@@@@@@@@+          ",
"          @@@@@@@@@@@@@@@@@@@@@@@@@@@@@@@@@@@@@@@@@@@@@          ",
"          @@@@@@@@@@@@@@@@@@@@@@@@@@@@@@@@@@@@@@@@@@@@@          ",
"          @@@@@@@@@@@@@@@@@@@@@@@@@@@@@@@@@@@@@@@@@@@@@          ",
"          @@@@@@@@@@@@@@@@@@@@@@@@@@@@@@@@@@@@@@@@@@@@@          ",
"          @@@@@@@@@@@@@@@@@@@@@@@@@@@@@@@@@@@@@@@@@@@@@          ",
"          @@@@@@@@@@@@@@@@@@@@@@@@@@@@@@@@@@@@@@@@@@@@@          ",
"          @@@@@@@@@@@@@@@@@@@@@@@@@@@@@@@@@@@@@@@@@@@@@          ",
"          @@@@@@@@@@@@@@@@@@@@@@@@@@@@@@@@@@@@@@@@@@@@@          ",
"          @@@@@@@@@@@@@@@@@@@@@@@@@@@@@@@@@@@@@@@@@@@@@          ",
"          +@@@@@@@@@@@@@@@@@@@@@@@@@@@@@@@@@@@@@@@@@@@+          ",
"          .@@@@@@@@@@@@@@@@@@@@@@@@@@@@@@@@@@@@@@@@@@@.          ",
"           @@@@@@@@@@@@@@@@@@@@@@@@@@@@@@@@@@@@@@@@@@@           ",
"           @@@@@@@@@@@@@@@@@@@@@@@@@@@@@@@@@@@@@@@@@@@           ",
"           #@@@@@@@@@@@@@@@@@@@@@@@@@@@@@@@@@@@@@@@@@#           ",
"            @@@@@@@@@@@@@@@@@@@@@@@@@@@@@@@@@@@@@@@@@            ",
"            $@@@@@@@@@@@@@@@@@@@@@@@@@@@@@@@@@@@@@@@$            ",
"             +@@@@@@@@@@@@@@@@@@@@@@@@@@@@@@@@@@@@@+             ",
"             %@@@@@@@@@@@@@@@@@@@@@@@@@@@@@@@@@@@@@%             ",
"              +@@@@@@@@@@@@@@@@@@@@@@@@@@@@@@@@@@@+              ",
"               +@@@@@@@@@@@@@@@@@@@@@@@@@@@@@@@@@+               ",
"                +@@@@@@@@@@@@@@@@@@@@@@@@@@@@@@@+                ",
"                 +@@@@@@@@@@@@@@@@@@@@@@@@@@@@@+                 ",
"                  +@@@@@@@@@@@@@@@@@@@@@@@@@@@+                  ",
"                   %+@@@@@@@@@@@@@@@@@@@@@@@+%                   ",
"                     $@@@@@@@@@@@@@@@@@@@@@$                     ",
"                       #@@@@@@@@@@@@@@@@@#                       ",
"                          .+@@@@@@@@@+.                          ",
"                                                                 ",
"                                                                 ",
"                                                                 ",
"                                                                 ",
"                                                                 ",
"                                                                 ",
"                                                                 ",
"                                                                 ",
"                                                                 ",
"                                                                 "};
