/* XPM */
static char * grey_pawn_xpm[] = {
"65 65 5 1",
" 	c #000001",
".	c #E6E6E6",
"+	c #D4D4D4",
"@	c #808080",
"#	c #DADADA",
"                                                                 ",
"                                                                 ",
"                                                                 ",
"                                                                 ",
"                                                                 ",
"                                                                 ",
"                                                                 ",
"                                                                 ",
"                                                                 ",
"                                                                 ",
"                                                                 ",
"                                                                 ",
"                                                                 ",
"                                                                 ",
"                                                                 ",
"                                                                 ",
"                                                                 ",
"                                                                 ",
"                                                                 ",
"                                                                 ",
"                                                                 ",
"                                                                 ",
"                           .+@@@@@@+.                            ",
"                          +@@@@@@@@@@+                           ",
"                        #@@@@@@@@@@@@@@#                         ",
"                        @@@@@@@@@@@@@@@@                         ",
"                       +@@@@@@@@@@@@@@@@+                        ",
"                      .@@@@@@@@@@@@@@@@@@.                       ",
"                      +@@@@@@@@@@@@@@@@@@+                       ",
"                      @@@@@@@@@@@@@@@@@@@@                       ",
"                      @@@@@@@@@@@@@@@@@@@@                       ",
"                      @@@@@@@@@@@@@@@@@@@@                       ",
"                      @@@@@@@@@@@@@@@@@@@@                       ",
"                      @@@@@@@@@@@@@@@@@@@@                       ",
"                      @@@@@@@@@@@@@@@@@@@@                       ",
"                      +@@@@@@@@@@@@@@@@@@+                       ",
"                      .@@@@@@@@@@@@@@@@@@.                       ",
"                       +@@@@@@@@@@@@@@@@+                        ",
"                        @@@@@@@@@@@@@@@@                         ",
"                        #@@@@@@@@@@@@@@#                         ",
"                          +@@@@@@@@@@+                           ",
"                           .+@@@@@@+.                            ",
"                                                                 ",
"                                                                 ",
"                                                                 ",
"                                                                 ",
"                                                                 ",
"                                                                 ",
"                                                                 ",
"                                                                 ",
"                                                                 ",
"                                                                 ",
"                                                                 ",
"                                                                 ",
"                                                                 ",
"                                                                 ",
"                                                                 ",
"                                                                 ",
"                                                                 ",
"                                                                 ",
"                                                                 ",
"                                                                 ",
"                                                                 ",
"                                                                 ",
"                                                                 "};
