/* XPM */
static char * player2_xpm[] = {
"236 26 2 1",
" 	c #000001",
".	c #FFFFFF",
"......................        .......                              ............              ........       ........    ..........................    ......................                                         ...................    ",
"......................        .......                              ............              ........       ........    ..........................    ......................                                         ...................    ",
"......................        .......                              ............              ........       ........    ..........................    ......................                                         ...................    ",
"......................        .......                              ............              ........       ........    ..........................    ......................                                         ...................    ",
".......           ........    .......                          ........    .......           ........       ........    .......                       .......           ........                                  .......           ........",
".......           ........    .......                          ........    .......           ........       ........    .......                       .......           ........                                  .......           ........",
".......           ........    .......                          ........    .......           ........       ........    .......                       .......           ........                                  .......           ........",
".......           ........    .......                          ........    ........          ........       ........    .......                       .......           ........                                  .......           ........",
".......           ........    .......                       .......           ........       ........       ........    .......                       .......           ........                                                 ...........",
".......           ........    .......                       .......           ........       ........       ........    .......                       .......           ........                                                 ...........",
".......           ........    .......                       .......           ........       ........       ........    .......                       .......           ........                                                 ...........",
".......           ........    .......                       .......           ........           ...............        ......................        .......        ...........                                                ........    ",
".......           ........    .......                       .......           ........           ...............        ......................        .......        ...........                                         ...............    ",
".......           ........    .......                       .......           ........           ...............        ......................        .......        ...........                                         ...............    ",
".......           ........    .......                       .......           ........           ...............        ......................        .......        ...........                                         ...............    ",
"......................        .......                       ..........................               ........           .......                       ...................                                             ...............       ",
"......................        .......                       ..........................               ........           .......                       ...................                                            ................       ",
"......................        .......                       ..........................               ........           .......                       ...................                                            ................       ",
"......................        .......                       ..........................               ........           .......                       ...................                                            ........               ",
".......                       .......                       .......           ........               ........           .......                       .......    ...........                                      ...........               ",
".......                       .......                       .......           ........               ........           .......                       .......    ...........                                      ...........               ",
".......                       .......                       .......           ........               ........           .......                       .......    ...........                                      ...........               ",
".......                       ..........................    .......           ........               ........           ..........................    .......        ...........                                  ..........................",
".......                       ..........................    .......           ........               ........           ..........................    .......        ...........                                  ..........................",
".......                       ..........................    .......           ........               ........           ..........................    .......        ...........                                  ..........................",
".......                       ..........................    .......           ........               ........           ..........................    .......        ...........                                  .........................."};
