/* XPM */
static char * white_pawn_xpm[] = {
"65 65 5 1",
" 	c #000001",
".	c #FDFDFD",
"+	c #FEFEFE",
"@	c #FFFFFF",
"#	c #EFEFEF",
"                                                                 ",
"                                                                 ",
"                                                                 ",
"                                                                 ",
"                                                                 ",
"                                                                 ",
"                                                                 ",
"                                                                 ",
"                                                                 ",
"                                                                 ",
"                          .+@@@@@@@@@+.                          ",
"                       .@@@@@@@@@@@@@@@@@.                       ",
"                     .@@@@@@@@@@@@@@@@@@@@@.                     ",
"                   #@@@@@@@@@@@@@@@@@@@@@@@@@#                   ",
"                  +@@@@@@@@@@@@@@@@@@@@@@@@@@@+                  ",
"                 +@@@@@@@@@@@@@@@@@@@@@@@@@@@@@+                 ",
"                +@@@@@@@@@@@@@@@@@@@@@@@@@@@@@@@+                ",
"               +@@@@@@@@@@@@@@@@@@@@@@@@@@@@@@@@@+               ",
"              +@@@@@@@@@@@@@@@@@@@@@@@@@@@@@@@@@@@+              ",
"             #@@@@@@@@@@@@@@@@@@@@@@@@@@@@@@@@@@@@@#             ",
"             @@@@@@@@@@@@@@@@@@@@@@@@@@@@@@@@@@@@@@@             ",
"            .@@@@@@@@@@@@@@@@@@@@@@@@@@@@@@@@@@@@@@@.            ",
"            @@@@@@@@@@@@@@@@@@@@@@@@@@@@@@@@@@@@@@@@@            ",
"           .@@@@@@@@@@@@@@@@@@@@@@@@@@@@@@@@@@@@@@@@@.           ",
"           @@@@@@@@@@@@@@@@@@@@@@@@@@@@@@@@@@@@@@@@@@@           ",
"           @@@@@@@@@@@@@@@@@@@@@@@@@@@@@@@@@@@@@@@@@@@           ",
"          .@@@@@@@@@@@@@@@@@@@@@@@@@@@@@@@@@@@@@@@@@@@.          ",
"          +@@@@@@@@@@@@@@@@@@@@@@@@@@@@@@@@@@@@@@@@@@@+          ",
"          @@@@@@@@@@@@@@@@@@@@@@@@@@@@@@@@@@@@@@@@@@@@@          ",
"          @@@@@@@@@@@@@@@@@@@@@@@@@@@@@@@@@@@@@@@@@@@@@          ",
"          @@@@@@@@@@@@@@@@@@@@@@@@@@@@@@@@@@@@@@@@@@@@@          ",
"          @@@@@@@@@@@@@@@@@@@@@@@@@@@@@@@@@@@@@@@@@@@@@          ",
"          @@@@@@@@@@@@@@@@@@@@@@@@@@@@@@@@@@@@@@@@@@@@@          ",
"          @@@@@@@@@@@@@@@@@@@@@@@@@@@@@@@@@@@@@@@@@@@@@          ",
"          @@@@@@@@@@@@@@@@@@@@@@@@@@@@@@@@@@@@@@@@@@@@@          ",
"          @@@@@@@@@@@@@@@@@@@@@@@@@@@@@@@@@@@@@@@@@@@@@          ",
"          @@@@@@@@@@@@@@@@@@@@@@@@@@@@@@@@@@@@@@@@@@@@@          ",
"          +@@@@@@@@@@@@@@@@@@@@@@@@@@@@@@@@@@@@@@@@@@@+          ",
"          .@@@@@@@@@@@@@@@@@@@@@@@@@@@@@@@@@@@@@@@@@@@.          ",
"           @@@@@@@@@@@@@@@@@@@@@@@@@@@@@@@@@@@@@@@@@@@           ",
"           @@@@@@@@@@@@@@@@@@@@@@@@@@@@@@@@@@@@@@@@@@@           ",
"           .@@@@@@@@@@@@@@@@@@@@@@@@@@@@@@@@@@@@@@@@@.           ",
"            @@@@@@@@@@@@@@@@@@@@@@@@@@@@@@@@@@@@@@@@@            ",
"            .@@@@@@@@@@@@@@@@@@@@@@@@@@@@@@@@@@@@@@@.            ",
"             @@@@@@@@@@@@@@@@@@@@@@@@@@@@@@@@@@@@@@@             ",
"             #@@@@@@@@@@@@@@@@@@@@@@@@@@@@@@@@@@@@@#             ",
"              +@@@@@@@@@@@@@@@@@@@@@@@@@@@@@@@@@@@+              ",
"               +@@@@@@@@@@@@@@@@@@@@@@@@@@@@@@@@@+               ",
"                +@@@@@@@@@@@@@@@@@@@@@@@@@@@@@@@+                ",
"                 +@@@@@@@@@@@@@@@@@@@@@@@@@@@@@+                 ",
"                  +@@@@@@@@@@@@@@@@@@@@@@@@@@@+                  ",
"                   #@@@@@@@@@@@@@@@@@@@@@@@@@#                   ",
"                     .@@@@@@@@@@@@@@@@@@@@@.                     ",
"                       .@@@@@@@@@@@@@@@@@.                       ",
"                          .+@@@@@@@@@+.                          ",
"                                                                 ",
"                                                                 ",
"                                                                 ",
"                                                                 ",
"                                                                 ",
"                                                                 ",
"                                                                 ",
"                                                                 ",
"                                                                 ",
"                                                                 "};
